# xmcd CD database file
#
# Track frame offsets:
#	150
#	13635
#	26563
#	41353
#	56510
#	68838
#	80835
#	91305
#	101515
#	114890
#	126248
#	136328
#	146238
#
# Disc length: 2058 seconds
#
# Revision: 2
# Processed by: cddbd v1.4b41PL1 Copyright (c) Steve Scherf et al.
# Submitted via: Feurio! 1.60 - http://www.feurio.com
#
DISCID=ad08080d,be08080d
DTITLE=Sly and The Family Stone - Backtracks
DYEAR=1900
DGENRE=
TTITLE0=It Takes All Kinds
TTITLE1=Who Is To Say
TTITLE2=Remember Who You Are
TTITLE3=Back On The Right Track
TTITLE4=If It's Not Adding Up
TTITLE5=Same Thing
TTITLE6=Seventh Son
TTITLE7=Swim
TTITLE8=Honest
TTITLE9=Nerves
TTITLE10=Every Dog Has His Day
TTITLE11=Buttermilk Pt. 1
TTITLE12=Buttermilk Pt. 2
EXTD=
EXTT0=
EXTT1=
EXTT2=
EXTT3=
EXTT4=
EXTT5=
EXTT6=
EXTT7=
EXTT8=
EXTT9=
EXTT10=
EXTT11=
EXTT12=
PLAYORDER=
